HIERARCHY
ROOT Hips
{
	OFFSET 0.000000 0.000000 0.000000
	CHANNELS 6 Xposition Yposition Zposition Xrotation Yrotation Zrotation
	JOINT LeftUpLeg_virtual
	{
		OFFSET 0.000000 0.000000 0.000000
		CHANNELS 3 Xrotation Yrotation Zrotation
		JOINT LeftUpLeg
		{
			OFFSET 10.205400 -3.823500 0.155100
			CHANNELS 3 Xrotation Yrotation Zrotation
			JOINT LeftLeg
			{
				OFFSET 0.708757 -12.982077 0.567790
				CHANNELS 3 Xrotation Yrotation Zrotation
				JOINT LeftFoot
				{
					OFFSET -0.708756 -10.717838 -2.184338
					CHANNELS 3 Xrotation Yrotation Zrotation
					JOINT LeftToeBase
					{
						OFFSET 0.108149 -7.191104 7.560241
						CHANNELS 3 Xrotation Yrotation Zrotation
						JOINT LeftToe_End
						{
							OFFSET 0.070230 0.081724 4.490308
							CHANNELS 3 Xrotation Yrotation Zrotation
							End Site
							{
								OFFSET 0 0 0
							}
						}
					}
				}
			}
		}
	}
	JOINT RightUpLeg_virtual
	{
		OFFSET 0.000000 0.000000 0.000000
		CHANNELS 3 Xrotation Yrotation Zrotation
		JOINT RightUpLeg
		{
			OFFSET -10.205400 -3.823500 0.005500
			CHANNELS 3 Xrotation Yrotation Zrotation
			JOINT RightLeg
			{
				OFFSET -0.708756 -12.982134 0.610632
				CHANNELS 3 Xrotation Yrotation Zrotation
				JOINT RightFoot
				{
					OFFSET 0.708754 -10.717769 -1.945823
					CHANNELS 3 Xrotation Yrotation Zrotation
					JOINT RightToeBase
					{
						OFFSET -0.108140 -7.191069 7.372968
						CHANNELS 3 Xrotation Yrotation Zrotation
						JOINT RightToe_End
						{
							OFFSET -0.070227 0.081735 4.479403
							CHANNELS 3 Xrotation Yrotation Zrotation
							End Site
							{
								OFFSET 0 0 0
							}
						}
					}
				}
			}
		}
	}
	JOINT Spine_virtual
	{
		OFFSET 0.000000 0.000000 0.000000
		CHANNELS 3 Xrotation Yrotation Zrotation
		JOINT Spine
		{
			OFFSET 0.000000 6.876099 0.125700
			CHANNELS 3 Xrotation Yrotation Zrotation
			JOINT Spine1
			{
				OFFSET 0.000000 5.730043 0.104720
				CHANNELS 3 Xrotation Yrotation Zrotation
				JOINT Spine1_split
				{
					OFFSET 0.000000 5.730043 0.104720
					CHANNELS 3 Xrotation Yrotation Zrotation
					JOINT Spine2
					{
						OFFSET 0.000000 5.730043 0.104720
						CHANNELS 3 Xrotation Yrotation Zrotation
						JOINT Neck_virtual
						{
							OFFSET 0.000000 0.000000 0.000000
							CHANNELS 3 Xrotation Yrotation Zrotation
							JOINT Neck
							{
								OFFSET 0.000000 10.314075 0.188496
								CHANNELS 3 Xrotation Yrotation Zrotation
								JOINT Head
								{
									OFFSET 0.000000 7.643700 -2.377400
									CHANNELS 3 Xrotation Yrotation Zrotation
									JOINT HeadTop_End
									{
										OFFSET 0.000000 43.788605 -13.619600
										CHANNELS 3 Xrotation Yrotation Zrotation
										End Site
										{
											OFFSET 0 0 0
										}
									}
								}
							}
						}
						JOINT LeftShoulder_virtual
						{
							OFFSET 0.000000 0.000000 0.000000
							CHANNELS 3 Xrotation Yrotation Zrotation
							JOINT LeftShoulder
							{
								OFFSET 2.196100 4.412489 0.087492
								CHANNELS 3 Xrotation Yrotation Zrotation
								JOINT LeftShoulder_split
								{
									OFFSET 2.196100 4.412489 0.087492
									CHANNELS 3 Xrotation Yrotation Zrotation
									JOINT LeftArm
									{
										OFFSET 8.771219 -2.981674 -0.026999
										CHANNELS 3 Xrotation Yrotation Zrotation
										JOINT LeftForeArm
										{
											OFFSET 8.512804 0.000000 -0.000000
											CHANNELS 3 Xrotation Yrotation Zrotation
											JOINT LeftHand
											{
												OFFSET 18.484802 0.000000 -0.000000
												CHANNELS 3 Xrotation Yrotation Zrotation
												End Site
												{
													OFFSET 0 0 0
												}
											}
										}
									}
								}
							}
						}
						JOINT RightShoulder_virtual
						{
							OFFSET 0.000000 0.000000 0.000000
							CHANNELS 3 Xrotation Yrotation Zrotation
							JOINT RightShoulder
							{
								OFFSET -2.196100 4.412496 0.070690
								CHANNELS 3 Xrotation Yrotation Zrotation
								JOINT RightShoulder_split
								{
									OFFSET -2.196100 4.412496 0.070690
									CHANNELS 3 Xrotation Yrotation Zrotation
									JOINT RightArm
									{
										OFFSET -8.771282 -2.981682 -0.094208
										CHANNELS 3 Xrotation Yrotation Zrotation
										JOINT RightForeArm
										{
											OFFSET -8.494598 0.000000 0.000000
											CHANNELS 3 Xrotation Yrotation Zrotation
											JOINT RightHand
											{
												OFFSET -18.483803 0.000000 0.000001
												CHANNELS 3 Xrotation Yrotation Zrotation
												End Site
												{
													OFFSET 0 0 0
												}
											}
										}
									}
								}
							}
						}
					}
				}
			}
		}
	}
}
MOTION
Frames: 8
Frame Time: 0.03333333
1.162666 25.726931 -23.120506 0.000000 0.000000 0.000000 29.052777 -72.425550 26.734902 -42.588811 -3.523423 31.532374 77.984368 -3.963622 2.541579 -26.871443 21.228646 -29.426378 -6.593435 -4.359397 -2.165778 0.000000 0.000000 0.000000 31.680350 -72.313883 29.653140 -51.081458 2.511272 -14.381330 79.673037 13.295418 -7.363810 -46.183127 -10.387071 23.977686 2.597542 4.323261 -31.968062 0.000000 0.000000 0.000000 27.356909 -71.024945 24.224265 2.032963 16.787287 -0.718238 12.748023 13.514314 -6.796469 0.328957 -1.250223 0.212386 0.000000 0.000000 0.000000 14.331079 14.586236 -6.315963 -3.741038 3.192102 12.127701 -33.556255 -17.421915 -13.936390 0.000000 0.000000 0.000000 10.167484 13.672552 -6.459794 7.517388 -7.666435 9.558279 2.258376 3.276493 -3.365426 -95.141748 -26.169048 -66.389569 11.787502 -69.782458 4.248509 0.000000 0.000000 0.000000 11.310499 13.455947 -6.042343 7.854738 -6.061156 -10.598675 -12.072424 3.503357 -0.514755 -56.252697 4.373797 24.111029 -16.412070 37.016822 18.095924 0.000000 0.000000 0.000000 
1.718011 25.051195 -23.303558 0.000000 0.000000 0.000000 33.873183 -70.547392 31.709840 -49.534178 -5.389929 32.166964 79.952555 -5.716276 2.515992 -26.108043 20.746665 -30.089589 -4.949495 -4.336483 -2.461244 0.000000 0.000000 0.000000 33.963894 -70.433068 32.475248 -55.205052 4.434682 -15.260101 83.552632 13.020050 -6.600051 -46.210806 -11.101247 24.736054 2.068187 4.412726 -30.537919 0.000000 0.000000 0.000000 31.036994 -68.662826 28.236659 4.614883 16.071958 -0.921101 13.112385 13.025942 -6.801108 0.331839 -1.438939 0.169535 0.000000 0.000000 0.000000 14.317388 14.120268 -5.949975 -4.742430 3.066200 12.423310 -36.132056 -9.230984 -14.705399 0.000000 0.000000 0.000000 10.229939 13.183296 -6.665877 6.493045 -8.440532 7.680001 1.168213 4.127424 -3.796839 -79.034468 -17.972560 -60.590717 15.897576 -69.733745 7.356815 0.000000 0.000000 0.000000 11.604316 13.143876 -5.837789 7.284264 -7.189490 -6.733055 -13.437208 4.567162 -0.849280 -47.066137 0.324727 24.050652 -13.457280 35.162770 19.669509 0.000000 0.000000 0.000000 
2.103892 24.624249 -23.309895 0.000000 0.000000 0.000000 37.683035 -68.733286 35.997289 -55.212790 -6.364076 32.243568 80.264668 -7.359262 2.347970 -24.148182 19.635445 -29.407731 -4.848124 -4.391815 -3.054404 0.000000 0.000000 0.000000 35.434202 -68.496716 34.762241 -58.826876 6.984420 -16.632463 86.049107 13.185377 -5.988239 -44.945196 -11.606589 27.034131 1.305487 4.470496 -27.948880 0.000000 0.000000 0.000000 33.411148 -66.304451 31.157370 6.781365 15.258795 -0.925277 13.398207 12.490333 -6.678325 0.319716 -1.538216 0.103383 0.000000 0.000000 0.000000 14.385777 13.576569 -5.484697 -6.134531 2.776011 12.533013 -37.696685 -1.282738 -15.349581 0.000000 0.000000 0.000000 10.217443 12.694025 -6.770697 5.531299 -8.578807 6.121312 0.451498 4.504578 -3.616909 -62.603786 -8.600937 -57.925899 17.456246 -67.169836 8.668005 0.000000 0.000000 0.000000 11.928459 12.753246 -5.601436 6.942608 -7.655947 -3.277059 -14.148080 5.790672 -1.078622 -37.022036 -6.128759 25.989449 -10.401524 34.208811 20.691184 0.000000 0.000000 0.000000 
2.353226 24.377974 -23.302212 0.000000 0.000000 0.000000 39.480529 -66.992462 38.450881 -59.283604 -6.487840 32.025435 79.641966 -9.145996 2.084542 -21.571626 18.066513 -28.040578 -5.825820 -4.409245 -3.998744 0.000000 0.000000 0.000000 36.047266 -66.634697 36.211412 -61.008008 9.523338 -18.074858 87.236207 13.764225 -5.821429 -43.674398 -11.959899 30.566613 -0.101379 4.673180 -24.767104 0.000000 0.000000 0.000000 34.132221 -64.252819 32.589701 8.342553 14.492302 -0.570443 13.620648 11.966908 -6.535408 0.268689 -1.514499 0.101680 0.000000 0.000000 0.000000 14.490998 12.999760 -5.086111 -7.780153 2.374580 12.385688 -38.217261 5.738138 -15.784417 0.000000 0.000000 0.000000 10.268078 12.200477 -6.894990 4.688349 -8.272777 4.808049 0.029422 4.355834 -3.002515 -46.665512 0.173405 -59.197222 17.609392 -63.444753 8.966746 0.000000 0.000000 0.000000 12.349448 12.334922 -5.427724 6.781631 -7.120395 -0.021147 -14.786236 6.753028 -1.171125 -26.102280 -13.547540 30.407995 -7.357145 33.392795 20.929440 0.000000 0.000000 0.000000 
2.409119 24.301624 -23.266743 0.000000 0.000000 0.000000 38.875422 -65.479466 38.677305 -61.271414 -5.857247 31.553517 77.967272 -11.109621 1.690655 -19.284920 16.359729 -26.419761 -7.375763 -4.295593 -5.009855 0.000000 0.000000 0.000000 35.658509 -64.723501 36.432711 -60.915008 11.373300 -19.603174 87.090943 14.459717 -6.021796 -43.154276 -12.302323 33.984218 -1.518903 4.936313 -21.445215 0.000000 0.000000 0.000000 33.214274 -62.482133 32.401844 9.264406 13.857854 0.140928 13.766268 11.447622 -6.445091 0.134397 -1.438369 0.132137 0.000000 0.000000 0.000000 14.596708 12.410173 -4.876468 -9.528400 2.016761 11.952527 -37.923898 11.203061 -15.971871 0.000000 0.000000 0.000000 10.462182 11.674542 -7.125897 3.940997 -7.813790 3.679496 -0.661874 4.106874 -2.442022 -32.385622 7.070864 -63.677888 17.490945 -59.671538 9.088169 0.000000 0.000000 0.000000 12.870203 11.901840 -5.351086 6.701968 -5.549921 2.971639 -15.300046 7.444157 -1.053709 -15.653986 -20.145079 36.553919 -4.638058 32.021819 20.410936 0.000000 0.000000 0.000000 
2.395007 24.435829 -23.257072 0.000000 0.000000 0.000000 36.138545 -64.069442 36.814327 -61.365336 -4.818508 30.598650 75.607510 -13.046695 1.373611 -17.398677 14.672343 -25.127557 -8.205825 -4.048104 -5.914934 0.000000 0.000000 0.000000 33.973948 -63.047174 35.142044 -58.754537 11.834430 -21.209197 85.547095 14.737805 -6.285668 -43.450966 -13.136756 36.276111 -2.122520 5.096382 -18.365375 0.000000 0.000000 0.000000 31.272250 -60.944426 31.080895 9.578424 13.357734 1.093731 13.814678 10.919314 -6.411514 0.010561 -1.378976 0.209009 0.000000 0.000000 0.000000 14.694988 11.825913 -4.830602 -11.223994 1.730892 11.206784 -37.137016 14.942260 -15.830884 0.000000 0.000000 0.000000 10.713303 11.114473 -7.381209 3.296788 -7.245507 2.730597 -1.493952 3.630057 -2.139764 -21.186127 11.622165 -69.538258 17.307689 -56.361580 9.131025 0.000000 0.000000 0.000000 13.346299 11.433798 -5.338120 6.585751 -3.349033 5.494074 -15.595793 7.487118 -1.079009 -7.775035 -25.000630 42.884094 -2.624960 29.877293 19.367746 0.000000 0.000000 0.000000 
2.306250 24.828297 -23.240437 0.000000 0.000000 0.000000 31.990967 -62.546091 33.448782 -59.844280 -3.608048 29.150715 72.687310 -14.881901 1.221725 -16.034795 12.897784 -24.483681 -8.134248 -3.789514 -6.249235 0.000000 0.000000 0.000000 31.246422 -61.590398 32.742370 -54.736419 10.608700 -22.901354 82.832122 14.649967 -6.385178 -44.056404 -14.695982 37.349114 -2.271864 5.156194 -15.746730 0.000000 0.000000 0.000000 28.542215 -59.384083 28.819840 9.438741 12.901547 2.021630 13.764282 10.358562 -6.376084 -0.039068 -1.325985 0.274349 0.000000 0.000000 0.000000 14.748316 11.255075 -4.854451 -12.715481 1.561906 10.194942 -36.229796 17.100485 -15.229111 0.000000 0.000000 0.000000 10.941704 10.525652 -7.509415 2.710895 -6.498255 1.962609 -2.513349 3.042305 -2.149955 -13.743046 14.392117 -75.021937 17.035644 -53.479234 8.947420 0.000000 0.000000 0.000000 13.650529 10.906589 -5.292506 6.413113 -1.086625 7.334093 -15.724400 6.995221 -1.074337 -3.608939 -28.153121 48.041809 -1.532899 27.148482 18.096238 0.000000 0.000000 0.000000 
2.161888 25.450897 -23.199898 0.000000 0.000000 0.000000 27.362224 -60.768384 29.512749 -57.143203 -2.304829 27.118619 69.126521 -16.342886 1.194587 -15.504476 10.931037 -23.953128 -7.008419 -3.657688 -5.831720 0.000000 0.000000 0.000000 27.488190 -59.955107 29.360186 -49.460634 7.843369 -24.600227 79.221411 14.345873 -6.230610 -44.533872 -16.757318 37.485567 -2.259219 5.150867 -13.816594 0.000000 0.000000 0.000000 25.533201 -57.559917 26.117766 9.001086 12.398808 2.635044 13.650972 9.752433 -6.244319 -0.014823 -1.282623 0.313950 0.000000 0.000000 0.000000 14.740848 10.700425 -4.825963 -13.819742 1.529679 8.981347 -35.455877 17.824398 -14.219205 0.000000 0.000000 0.000000 11.089118 9.923623 -7.396910 2.217431 -5.638305 1.354580 -3.506351 2.338794 -2.570400 -9.607394 15.961522 -79.252884 16.452829 -50.974549 8.402567 0.000000 0.000000 0.000000 13.732579 10.317615 -5.127213 6.228092 0.809767 8.380851 -15.206233 6.185879 -1.112947 -3.026643 -29.994369 51.619940 -1.348261 24.153277 16.825935 0.000000 0.000000 0.000000 
